<svg width="18" height="18" viewBox="0 0 18 18" fill="none" xmlns="http://www.w3.org/2000/svg">
<path fill-rule="evenodd" clip-rule="evenodd" d="M3.75128 9.58268L6.74294 12.5743C7.06794 12.8993 7.60128 12.8993 7.91794 12.5743L14.2429 6.24935C14.5679 5.92435 14.5679 5.39935 14.2429 5.07435C13.9179 4.74935 13.3929 4.74935 13.0679 5.07435L7.33461 10.8077L4.92628 8.40768C4.60128 8.08268 4.07628 8.08268 3.75128 8.40768C3.42628 8.73268 3.42628 9.25768 3.75128 9.58268ZM2.1263 0.666016C1.32089 0.666016 0.667969 1.31893 0.667969 2.12435V15.8743C0.667969 16.6798 1.32089 17.3327 2.1263 17.3327H15.8763C16.6817 17.3327 17.3346 16.6798 17.3346 15.8743V2.12435C17.3346 1.31893 16.6817 0.666016 15.8763 0.666016H2.1263Z" fill="#4C516D"/>
</svg>
