<svg width="20" height="20" viewBox="0 0 20 20" fill="none" xmlns="http://www.w3.org/2000/svg">
<path d="M14.399 7.73426C14.643 7.49018 14.643 7.09445 14.399 6.85038C14.1549 6.6063 13.7592 6.6063 13.5151 6.85038L8.54036 11.8251L6.48231 9.76704C6.23823 9.52296 5.8425 9.52296 5.59842 9.76704C5.35434 10.0111 5.35434 10.4068 5.59842 10.6509L8.09842 13.1509C8.3425 13.395 8.73823 13.395 8.98231 13.1509L14.399 7.73426Z" fill="#4C516D"/>
<path fill-rule="evenodd" clip-rule="evenodd" d="M9.9987 0.833984C4.93609 0.833984 0.832031 4.93804 0.832031 10.0007C0.832031 15.0633 4.93609 19.1673 9.9987 19.1673C15.0613 19.1673 19.1654 15.0633 19.1654 10.0007C19.1654 4.93804 15.0613 0.833984 9.9987 0.833984ZM2.08203 10.0007C2.08203 5.6284 5.62644 2.08398 9.9987 2.08398C14.3709 2.08398 17.9154 5.6284 17.9154 10.0007C17.9154 14.3729 14.3709 17.9173 9.9987 17.9173C5.62644 17.9173 2.08203 14.3729 2.08203 10.0007Z" fill="#4C516D"/>
</svg>
