<svg width="18" height="18" viewBox="0 0 18 18" fill="none" xmlns="http://www.w3.org/2000/svg">
<path fill-rule="evenodd" clip-rule="evenodd" d="M2.1263 0.666016C1.32089 0.666016 0.667969 1.31893 0.667969 2.12435V15.8743C0.667969 16.6798 1.32089 17.3327 2.1263 17.3327H15.8763C16.6817 17.3327 17.3346 16.6798 17.3346 15.8743V2.12435C17.3346 1.31893 16.6817 0.666016 15.8763 0.666016H2.1263ZM1.91797 2.12435C1.91797 2.00929 2.01124 1.91602 2.1263 1.91602H15.8763C15.9914 1.91602 16.0846 2.00929 16.0846 2.12435V15.8743C16.0846 15.9894 15.9914 16.0827 15.8763 16.0827H2.1263C2.01124 16.0827 1.91797 15.9894 1.91797 15.8743V2.12435Z" fill="#4C516D"/>
</svg>
