<svg width="4" height="18" viewBox="0 0 4 18" fill="none" xmlns="http://www.w3.org/2000/svg">
<path fill-rule="evenodd" clip-rule="evenodd" d="M1.9987 13.9993C2.91917 13.9993 3.66536 14.7455 3.66536 15.666C3.66536 16.5865 2.91917 17.3327 1.9987 17.3327C1.07822 17.3327 0.332031 16.5865 0.332031 15.666C0.332031 14.7455 1.07822 13.9993 1.9987 13.9993ZM1.9987 7.33268C2.91917 7.33268 3.66536 8.07887 3.66536 8.99935C3.66536 9.91982 2.91917 10.666 1.9987 10.666C1.07822 10.666 0.332031 9.91982 0.332031 8.99935C0.332031 8.07887 1.07822 7.33268 1.9987 7.33268ZM3.66536 2.33268C3.66536 1.41221 2.91917 0.666016 1.9987 0.666016C1.07822 0.666016 0.332031 1.41221 0.332031 2.33268C0.332031 3.25316 1.07822 3.99935 1.9987 3.99935C2.91917 3.99935 3.66536 3.25316 3.66536 2.33268Z" fill="#4C516D"/>
</svg>
