<svg width="16" height="16" viewBox="0 0 16 16" fill="none" xmlns="http://www.w3.org/2000/svg">
<path d="M0.928955 6.89751C0.514742 6.89751 0.178955 7.23329 0.178955 7.64751L0.178955 15.0721C0.178955 15.4863 0.514742 15.8221 0.928955 15.8221H8.35358C8.76779 15.8221 9.10358 15.4863 9.10358 15.0721C9.10358 14.6579 8.76779 14.3221 8.35358 14.3221H2.73962L14.3211 2.74065L14.3211 8.35461C14.3211 8.76883 14.6569 9.10461 15.0711 9.10461C15.4853 9.10461 15.8211 8.76883 15.8211 8.35461V0.929993C15.8211 0.51578 15.4853 0.179993 15.0711 0.179993L7.64647 0.179993C7.23226 0.179993 6.89647 0.51578 6.89647 0.929993C6.89647 1.34421 7.23226 1.67999 7.64647 1.67999L13.2604 1.67999L1.67896 13.2615L1.67896 7.64751C1.67896 7.23329 1.34317 6.89751 0.928955 6.89751Z" fill="#24292E"/>
</svg>
