<svg width="20" height="24" viewBox="0 0 20 24" fill="none" xmlns="http://www.w3.org/2000/svg">
<path fill-rule="evenodd" clip-rule="evenodd" d="M2 2.25C2.41421 2.25 2.75 2.58579 2.75 3V23C2.75 23.4142 2.41421 23.75 2 23.75C1.58579 23.75 1.25 23.4142 1.25 23V3C1.25 2.58579 1.58579 2.25 2 2.25Z" fill="#24292E"/>
<path fill-rule="evenodd" clip-rule="evenodd" d="M1.25 4.5C1.25 4.08579 1.58579 3.75 2 3.75H9.46482C10.0499 3.75 10.5963 4.04243 10.9209 4.52927L11.3272 5.13868C11.3735 5.20822 11.4516 5.25 11.5352 5.25H17.75C18.8546 5.25 19.75 6.14543 19.75 7.25V16.25C19.75 17.3546 18.8546 18.25 17.75 18.25H11.5352C10.9501 18.25 10.4037 17.9576 10.0791 17.4707L9.67283 16.8613C9.62646 16.7918 9.5484 16.75 9.46482 16.75H2C1.58579 16.75 1.25 16.4142 1.25 16C1.25 15.5858 1.58579 15.25 2 15.25H9.46482C10.0499 15.25 10.5963 15.5424 10.9209 16.0293L11.3272 16.6387C11.3735 16.7082 11.4516 16.75 11.5352 16.75H17.75C18.0261 16.75 18.25 16.5261 18.25 16.25V7.25C18.25 6.97386 18.0261 6.75 17.75 6.75H11.5352C10.9501 6.75 10.4037 6.45757 10.0791 5.97073L9.67283 5.36133C9.62646 5.29178 9.5484 5.25 9.46482 5.25H2C1.58579 5.25 1.25 4.91421 1.25 4.5Z" fill="#24292E"/>
<path d="M3.5 2C3.5 2.82843 2.82843 3.5 2 3.5C1.17157 3.5 0.5 2.82843 0.5 2C0.5 1.17157 1.17157 0.5 2 0.5C2.82843 0.5 3.5 1.17157 3.5 2Z" fill="#24292E"/>
</svg>
