<svg width="20" height="20" viewBox="0 0 20 20" fill="none" xmlns="http://www.w3.org/2000/svg">
<path fill-rule="evenodd" clip-rule="evenodd" d="M9.99929 0.208008C10.2372 0.208008 10.4545 0.343069 10.5597 0.556404L13.1083 5.72042L18.8072 6.54851C19.0426 6.58272 19.2382 6.74762 19.3117 6.97388C19.3852 7.20014 19.3239 7.44851 19.1536 7.61457L15.0298 11.6342L16.0033 17.31C16.0435 17.5445 15.9471 17.7815 15.7547 17.9213C15.5622 18.0611 15.3071 18.0796 15.0965 17.9689L9.99929 15.2891L4.90209 17.9689C4.69152 18.0796 4.43636 18.0611 4.24389 17.9213C4.05142 17.7815 3.95503 17.5445 3.99525 17.31L4.96873 11.6342L0.845011 7.61457C0.674653 7.44851 0.613342 7.20014 0.686858 6.97388C0.760373 6.74762 0.955965 6.58272 1.19139 6.54851L6.89023 5.72042L9.43883 0.556404C9.54411 0.343069 9.76138 0.208008 9.99929 0.208008ZM9.99929 2.24523L7.86573 6.56828C7.77469 6.75275 7.59871 6.8806 7.39514 6.91018L2.62437 7.60342L6.07653 10.9684C6.22384 11.112 6.29106 11.3189 6.25628 11.5217L5.44134 16.2732L9.70845 14.0298C9.89052 13.9341 10.108 13.9341 10.2901 14.0298L14.5572 16.2732L13.7423 11.5217C13.7075 11.3189 13.7747 11.112 13.922 10.9684L17.3742 7.60342L12.6034 6.91018C12.3999 6.8806 12.2239 6.75275 12.1328 6.56828L9.99929 2.24523Z" fill="#878AA6"/>
</svg>
