<svg width="20" height="20" viewBox="0 0 20 20" fill="none" xmlns="http://www.w3.org/2000/svg">
<path d="M10.5597 0.556404C10.4545 0.343069 10.2372 0.208008 9.99929 0.208008C9.76138 0.208008 9.54411 0.343069 9.43883 0.556404L6.89023 5.72042L1.19139 6.54851C0.955965 6.58272 0.760373 6.74762 0.686858 6.97388C0.613342 7.20014 0.674653 7.44851 0.845011 7.61457L4.96873 11.6342L3.99525 17.31C3.95503 17.5445 4.05142 17.7815 4.24389 17.9213C4.43636 18.0611 4.69152 18.0796 4.90209 17.9689L9.99929 15.2891L15.0965 17.9689C15.3071 18.0796 15.5622 18.0611 15.7547 17.9213C15.9471 17.7815 16.0435 17.5445 16.0033 17.31L15.0298 11.6342L19.1536 7.61457C19.3239 7.44851 19.3852 7.20014 19.3117 6.97388C19.2382 6.74762 19.0426 6.58272 18.8072 6.54851L13.1083 5.72042L10.5597 0.556404Z" fill="#FFD600"/>
</svg>
