<svg width="20" height="20" viewBox="0 0 20 20" fill="none" xmlns="http://www.w3.org/2000/svg">
<path fill-rule="evenodd" clip-rule="evenodd" d="M4.58203 8.33398C5.96274 8.33398 7.08203 7.2147 7.08203 5.83398C7.08203 4.45327 5.96274 3.33398 4.58203 3.33398C3.20132 3.33398 2.08203 4.45327 2.08203 5.83398C2.08203 7.2147 3.20132 8.33398 4.58203 8.33398ZM4.58203 9.58398C5.79008 9.58398 6.86472 9.01275 7.55055 8.12565C7.8353 7.75734 8.05303 7.33458 8.18546 6.87565C8.28089 6.54493 8.33203 6.19543 8.33203 5.83398C8.33203 5.47254 8.28089 5.12304 8.18546 4.79232C8.05303 4.33339 7.8353 3.91063 7.55055 3.54232C6.86472 2.65522 5.79008 2.08398 4.58203 2.08398C2.51096 2.08398 0.832031 3.76292 0.832031 5.83398C0.832031 7.90505 2.51096 9.58398 4.58203 9.58398Z" fill="#4C516D"/>
<path d="M18.1237 5.83398C18.1237 4.56833 17.0977 3.54232 15.832 3.54232H7.55055C7.8353 3.91063 8.05303 4.33339 8.18546 4.79232H15.832C16.4073 4.79232 16.8737 5.25869 16.8737 5.83398C16.8737 6.40928 16.4073 6.87565 15.832 6.87565H8.18546C8.05303 7.33458 7.8353 7.75734 7.55055 8.12565H15.832C17.0977 8.12565 18.1237 7.09964 18.1237 5.83398Z" fill="#4C516D"/>
<path fill-rule="evenodd" clip-rule="evenodd" d="M15.4167 16.666C16.7974 16.666 17.9167 15.5467 17.9167 14.166C17.9167 12.7853 16.7974 11.666 15.4167 11.666C14.036 11.666 12.9167 12.7853 12.9167 14.166C12.9167 15.5467 14.036 16.666 15.4167 16.666ZM15.4167 17.916C17.4877 17.916 19.1667 16.2371 19.1667 14.166C19.1667 12.0949 17.4877 10.416 15.4167 10.416C14.2086 10.416 13.134 10.9873 12.4481 11.8743C12.1634 12.2427 11.9457 12.6654 11.8132 13.1243C11.7178 13.4551 11.6667 13.8046 11.6667 14.166C11.6667 14.5275 11.7178 14.877 11.8132 15.2077C11.9457 15.6666 12.1634 16.0894 12.4481 16.4577C13.134 17.3448 14.2086 17.916 15.4167 17.916Z" fill="#4C516D"/>
<path d="M4.16667 11.8743C2.90101 11.8743 1.875 12.9004 1.875 14.166C1.875 15.4317 2.90101 16.4577 4.16667 16.4577H12.4481C12.1634 16.0894 11.9457 15.6666 11.8132 15.2077H4.16667C3.59137 15.2077 3.125 14.7413 3.125 14.166C3.125 13.5907 3.59137 13.1243 4.16667 13.1243H11.8132C11.9457 12.6654 12.1634 12.2427 12.4481 11.8743H4.16667Z" fill="#4C516D"/>
</svg>
