<svg width="20" height="14" viewBox="0 0 20 14" fill="none" xmlns="http://www.w3.org/2000/svg">
<path fill-rule="evenodd" clip-rule="evenodd" d="M8.67944 9.50065L10.0388 13.2551C10.1563 13.5797 10.5147 13.7475 10.8392 13.63C11.1638 13.5125 11.3317 13.1541 11.2141 12.8295L6.98099 1.13799C6.80627 0.655427 6.34802 0.333984 5.83481 0.333984C5.32159 0.333984 4.86334 0.655427 4.68862 1.13799L0.455473 12.8295C0.33796 13.1541 0.505804 13.5124 0.830363 13.6299C1.15492 13.7475 1.51329 13.5796 1.6308 13.255L2.99016 9.50065H8.67944ZM8.22685 8.25065L5.83481 1.64404L3.44275 8.25065H8.22685Z" fill="#4C516D"/>
<path fill-rule="evenodd" clip-rule="evenodd" d="M12.4562 5.25247C13.217 3.84982 14.709 3.41504 16.0264 3.41504C16.8987 3.41504 17.7631 3.67472 18.425 4.15195C19.0923 4.63303 19.5848 5.36464 19.5848 6.27568V13.0423C19.5848 13.3875 19.305 13.6673 18.9598 13.6673C18.6146 13.6673 18.3348 13.3875 18.3348 13.0423V12.9918C18.3227 12.999 18.3106 13.0062 18.2985 13.0133C17.5543 13.4465 16.5514 13.6675 15.4223 13.6675C14.5464 13.6675 13.7157 13.4047 13.0928 12.8777C12.4596 12.3418 12.0786 11.5622 12.0786 10.6258C12.0786 9.86002 12.3698 9.0746 13.052 8.48982C13.727 7.91131 14.7191 7.58415 16.0265 7.58415H18.3348V6.27568C18.3348 5.85623 18.1158 5.47003 17.694 5.1659C17.2669 4.85794 16.6646 4.66504 16.0264 4.66504C14.9273 4.66504 14.0026 5.02322 13.555 5.84843C13.3904 6.15185 13.0111 6.26441 12.7076 6.09984C12.4042 5.93528 12.2917 5.5559 12.4562 5.25247ZM18.3348 8.83415H16.0265C14.9172 8.83415 14.2479 9.11114 13.8655 9.43889C13.4905 9.76035 13.3286 10.1833 13.3286 10.6258C13.3286 11.1998 13.5517 11.6285 13.9003 11.9234C14.2592 12.2271 14.7878 12.4175 15.4223 12.4175C16.4078 12.4175 17.1737 12.2217 17.6696 11.933C18.1552 11.6503 18.3348 11.3165 18.3348 10.9883L18.3348 8.83415Z" fill="#4C516D"/>
</svg>
