<svg width="18" height="18" viewBox="0 0 18 18" fill="none" xmlns="http://www.w3.org/2000/svg">
<path fill-rule="evenodd" clip-rule="evenodd" d="M4.41667 7.33333C6.0275 7.33333 7.33333 6.0275 7.33333 4.41667C7.33333 2.80584 6.0275 1.5 4.41667 1.5C2.80584 1.5 1.5 2.80584 1.5 4.41667C1.5 6.0275 2.80584 7.33333 4.41667 7.33333ZM3.028 9.65368C3.46235 9.50019 3.92975 9.41667 4.41667 9.41667C4.90358 9.41667 5.37098 9.50019 5.80534 9.65368C6.98942 10.0721 7.92788 11.0106 8.34632 12.1947C8.49981 12.629 8.58333 13.0964 8.58333 13.5833C8.58333 14.0702 8.49981 14.5377 8.34632 14.972C7.77438 16.5904 6.23094 17.75 4.41667 17.75C2.11548 17.75 0.25 15.8845 0.25 13.5833C0.25 11.7691 1.40956 10.2256 3.028 9.65368ZM8.34632 3.028C7.77439 1.40956 6.23094 0.25 4.41667 0.25C2.11548 0.25 0.25 2.11548 0.25 4.41667C0.25 6.23094 1.40956 7.77439 3.028 8.34632C3.46235 8.49981 3.92975 8.58333 4.41667 8.58333C4.90358 8.58333 5.37098 8.49981 5.80534 8.34632C6.98942 7.92788 7.92788 6.98942 8.34632 5.80534C8.49981 5.37098 8.58333 4.90358 8.58333 4.41667C8.58333 3.92975 8.49981 3.46235 8.34632 3.028ZM9.65368 5.80534C10.0721 6.98942 11.0106 7.92788 12.1947 8.34632C12.629 8.49981 13.0964 8.58333 13.5833 8.58333C14.0702 8.58333 14.5377 8.49981 14.972 8.34632C16.5904 7.77438 17.75 6.23094 17.75 4.41667C17.75 2.11548 15.8845 0.25 13.5833 0.25C11.7691 0.25 10.2256 1.40956 9.65368 3.028C9.50019 3.46235 9.41667 3.92975 9.41667 4.41667C9.41667 4.90358 9.50019 5.37098 9.65368 5.80534ZM14.972 9.65368C14.5377 9.50019 14.0702 9.41667 13.5833 9.41667C13.0964 9.41667 12.629 9.50019 12.1947 9.65368C11.0106 10.0721 10.0721 11.0106 9.65368 12.1947C9.50019 12.629 9.41667 13.0964 9.41667 13.5833C9.41667 14.0702 9.50019 14.5377 9.65368 14.972C10.2256 16.5904 11.7691 17.75 13.5833 17.75C15.8845 17.75 17.75 15.8845 17.75 13.5833C17.75 11.7691 16.5904 10.2256 14.972 9.65368ZM13.5833 7.33333C15.1942 7.33333 16.5 6.0275 16.5 4.41667C16.5 2.80584 15.1942 1.5 13.5833 1.5C11.9725 1.5 10.6667 2.80584 10.6667 4.41667C10.6667 6.0275 11.9725 7.33333 13.5833 7.33333ZM13.5833 16.5C15.1942 16.5 16.5 15.1942 16.5 13.5833C16.5 11.9725 15.1942 10.6667 13.5833 10.6667C11.9725 10.6667 10.6667 11.9725 10.6667 13.5833C10.6667 15.1942 11.9725 16.5 13.5833 16.5ZM4.41667 16.5C6.0275 16.5 7.33333 15.1942 7.33333 13.5833C7.33333 11.9725 6.0275 10.6667 4.41667 10.6667C2.80584 10.6667 1.5 11.9725 1.5 13.5833C1.5 15.1942 2.80584 16.5 4.41667 16.5Z" fill="#4C516D"/>
</svg>
