<svg width="18" height="19" viewBox="0 0 18 19" fill="none" xmlns="http://www.w3.org/2000/svg">
<path fill-rule="evenodd" clip-rule="evenodd" d="M12.3334 1.45833V2.5H16.7084C17.0535 2.5 17.3334 2.77982 17.3334 3.125C17.3334 3.47018 17.0535 3.75 16.7084 3.75H1.29169C0.946509 3.75 0.666687 3.47018 0.666687 3.125C0.666687 2.77982 0.946509 2.5 1.29169 2.5H5.66669V1.45833C5.66669 0.652918 6.31961 0 7.12502 0H10.875C11.6804 0 12.3334 0.652918 12.3334 1.45833ZM6.91669 1.45833C6.91669 1.34327 7.00996 1.25 7.12502 1.25H10.875C10.9901 1.25 11.0834 1.34327 11.0834 1.45833V2.5H6.91669V1.45833Z" fill="#4C516D"/>
<path d="M3.16383 5.14812C3.13058 4.80455 2.8251 4.55298 2.48153 4.58623C2.13796 4.61948 1.88639 4.92496 1.91964 5.26853L3.09676 17.4321C3.1691 18.1796 3.79731 18.75 4.54831 18.75H13.4518C14.2028 18.75 14.831 18.1796 14.9034 17.4321L16.0805 5.26853C16.1137 4.92496 15.8622 4.61948 15.5186 4.58623C15.175 4.55298 14.8696 4.80455 14.8363 5.14812L13.6592 17.3117C13.6488 17.4185 13.5591 17.5 13.4518 17.5H4.54831C4.44103 17.5 4.35128 17.4185 4.34095 17.3117L3.16383 5.14812Z" fill="#4C516D"/>
<path d="M6.67167 6.25107C7.01625 6.2308 7.31203 6.49371 7.33229 6.83829L7.74896 13.9216C7.76923 14.2662 7.50632 14.562 7.16174 14.5822C6.81716 14.6025 6.52139 14.3396 6.50112 13.995L6.08445 6.9117C6.06418 6.56711 6.32709 6.27134 6.67167 6.25107Z" fill="#4C516D"/>
<path d="M11.9156 6.9117C11.9359 6.56711 11.673 6.27134 11.3284 6.25107C10.9838 6.2308 10.6881 6.49371 10.6678 6.83829L10.2511 13.9216C10.2308 14.2662 10.4938 14.562 10.8383 14.5822C11.1829 14.6025 11.4787 14.3396 11.499 13.995L11.9156 6.9117Z" fill="#4C516D"/>
</svg>
