<svg width="20" height="20" viewBox="0 0 20 20" fill="none" xmlns="http://www.w3.org/2000/svg">
<path d="M14.4003 7.73377C14.6443 7.48969 14.6443 7.09397 14.4003 6.84989C14.1562 6.60581 13.7604 6.60581 13.5164 6.84989L8.54165 11.8246L6.48359 9.76655C6.23951 9.52248 5.84378 9.52248 5.5997 9.76655C5.35563 10.0106 5.35563 10.4064 5.5997 10.6504L8.0997 13.1504C8.34378 13.3945 8.73951 13.3945 8.98359 13.1504L14.4003 7.73377Z" fill="#4DC978"/>
<path fill-rule="evenodd" clip-rule="evenodd" d="M9.99998 0.833496C4.93737 0.833496 0.833313 4.93755 0.833313 10.0002C0.833313 15.0628 4.93737 19.1668 9.99998 19.1668C15.0626 19.1668 19.1666 15.0628 19.1666 10.0002C19.1666 4.93755 15.0626 0.833496 9.99998 0.833496ZM2.08331 10.0002C2.08331 5.62791 5.62773 2.0835 9.99998 2.0835C14.3722 2.0835 17.9166 5.62791 17.9166 10.0002C17.9166 14.3724 14.3722 17.9168 9.99998 17.9168C5.62773 17.9168 2.08331 14.3724 2.08331 10.0002Z" fill="#4DC978"/>
</svg>
