<svg width="4" height="18" viewBox="0 0 4 18" fill="none" xmlns="http://www.w3.org/2000/svg">
<path fill-rule="evenodd" clip-rule="evenodd" d="M1.99998 13.9998C2.92045 13.9998 3.66665 14.746 3.66665 15.6665C3.66665 16.587 2.92045 17.3332 1.99998 17.3332C1.07951 17.3332 0.333313 16.587 0.333313 15.6665C0.333313 14.746 1.07951 13.9998 1.99998 13.9998ZM1.99998 7.33317C2.92045 7.33317 3.66665 8.07936 3.66665 8.99984C3.66665 9.92031 2.92045 10.6665 1.99998 10.6665C1.07951 10.6665 0.333313 9.92031 0.333313 8.99984C0.333313 8.07936 1.07951 7.33317 1.99998 7.33317ZM3.66665 2.33317C3.66665 1.4127 2.92045 0.666504 1.99998 0.666504C1.07951 0.666504 0.333313 1.4127 0.333313 2.33317C0.333313 3.25365 1.07951 3.99984 1.99998 3.99984C2.92045 3.99984 3.66665 3.25365 3.66665 2.33317Z" fill="#4C516D"/>
</svg>
