<svg width="14" height="14" viewBox="0 0 14 14" fill="none" xmlns="http://www.w3.org/2000/svg">
<path d="M1.10745 6.08133C0.762275 6.08133 0.482453 6.36115 0.482453 6.70633L0.482452 12.8935C0.482453 13.2387 0.762275 13.5185 1.10745 13.5185H7.29464C7.63982 13.5185 7.91964 13.2387 7.91964 12.8935C7.91964 12.5483 7.63982 12.2685 7.29464 12.2685H2.61634L12.2676 2.61728L12.2676 7.29558C12.2676 7.64076 12.5474 7.92058 12.8926 7.92058C13.2377 7.92058 13.5176 7.64076 13.5176 7.29558V1.1084C13.5176 0.763221 13.2377 0.483399 12.8926 0.483398L6.70538 0.483398C6.3602 0.483399 6.08038 0.763221 6.08038 1.1084C6.08038 1.45358 6.3602 1.7334 6.70538 1.7334L11.3837 1.7334L1.73245 11.3846L1.73245 6.70633C1.73245 6.36115 1.45263 6.08133 1.10745 6.08133Z" fill="#4C516D"/>
</svg>
