<svg width="19" height="18" viewBox="0 0 19 18" fill="none" xmlns="http://www.w3.org/2000/svg">
<path fill-rule="evenodd" clip-rule="evenodd" d="M13.3932 0.786762C13.9654 0.233677 14.8753 0.241388 15.438 0.80409L17.5926 2.95874C18.169 3.5351 18.161 4.47196 17.575 5.03846L15.1675 7.36573L5.44405 16.7787C5.24298 16.9733 4.99014 17.106 4.71572 17.1609L1.40211 17.8236C0.673238 17.9694 0.0306106 17.3268 0.176386 16.5979L0.836213 13.2988C0.894259 13.0085 1.03924 12.7428 1.25189 12.537L10.9647 3.13429L13.3932 0.786762ZM14.5541 1.68797C14.4737 1.60759 14.3437 1.60649 14.262 1.6855L12.2909 3.5909L14.7402 6.04022L16.7062 4.13973C16.7899 4.0588 16.7911 3.92496 16.7087 3.84263L14.5541 1.68797ZM13.8417 6.90945L11.3923 4.46012L2.12132 13.4351C2.09094 13.4645 2.07023 13.5025 2.06194 13.5439L1.4634 16.5366L4.47057 15.9352C4.50978 15.9273 4.5459 15.9084 4.57462 15.8806L13.8417 6.90945Z" fill="#4C516D"/>
</svg>
